<?xml version="1.0" standalone="no"?>
<!DOCTYPE svg PUBLIC "-//W3C//DTD SVG 20010904//EN"
 "http://www.w3.org/TR/2001/REC-SVG-20010904/DTD/svg10.dtd">
<svg version="1.0" xmlns="http://www.w3.org/2000/svg"
 width="1140.000000pt" height="1006.000000pt" viewBox="0 0 1140.000000 1006.000000"
 preserveAspectRatio="xMidYMid meet">
<metadata>
Created by potrace 1.16, written by Peter Selinger 2001-2019
</metadata>
<g transform="translate(0.000000,1006.000000) scale(0.100000,-0.100000)"
fill="#000000" stroke="none">
<path d="M0 5030 l0 -5030 5700 0 5700 0 0 5030 0 5030 -5700 0 -5700 0 0
-5030z m9568 4704 l22 -15 0 -2770 c0 -2463 -2 -2769 -15 -2769 -8 0 -92 14
-185 31 -215 38 -216 38 -239 -91 -6 -36 -25 -140 -41 -233 -34 -191 -31 -210
29 -227 20 -5 104 -21 186 -35 83 -15 176 -31 208 -37 l57 -11 0 -148 c0 -121
-3 -150 -16 -163 -14 -14 -141 -16 -1255 -16 l-1239 0 0 -190 0 -190 1890 0
c1877 0 1890 0 1910 -20 20 -20 20 -33 20 -914 l0 -895 -26 -20 -27 -21 -2473
2 c-2359 3 -2474 4 -2491 21 -17 16 -18 50 -21 435 l-3 417 -2066 -3 c-1909
-2 -2068 -1 -2085 14 -17 16 -18 46 -20 455 l-3 439 -50 -36 c-74 -53 -153
-90 -252 -120 -75 -23 -107 -26 -218 -27 -112 0 -142 4 -218 27 -104 31 -170
63 -252 121 -141 100 -249 253 -305 430 -30 95 -38 282 -17 381 67 312 295
551 602 630 95 24 284 24 380 0 86 -22 213 -81 280 -130 l50 -36 3 1866 c1
1360 5 1871 13 1881 9 11 165 13 890 13 484 0 879 2 879 3 0 2 -9 39 -21 83
-29 109 -29 278 0 389 71 268 262 474 529 568 83 30 95 31 242 32 194 0 251
-14 443 -113 4 -2 7 215 7 481 l0 486 26 20 27 21 2411 0 c2166 0 2414 -2
2434 -16z m-6378 -229 c16 -8 34 -23 39 -33 5 -9 19 -79 32 -154 25 -148 22
-173 -23 -202 -20 -13 -205 -47 -968 -181 -74 -13 -382 -67 -685 -120 -390
-69 -557 -95 -574 -89 -13 5 -32 20 -42 34 -17 24 -59 227 -59 288 0 45 33 78
87 90 53 12 49 11 653 117 234 41 463 82 510 90 47 8 213 38 370 65 326 57
568 100 590 105 31 6 42 5 70 -10z m6265 -5436 c83 -23 137 -117 115 -199 -29
-106 -135 -157 -236 -111 -135 61 -118 268 25 311 37 12 51 11 96 -1z m338
-155 c-8 -127 -40 -183 -98 -168 -34 8 -63 50 -46 67 9 9 16 7 30 -12 31 -41
53 -25 68 49 20 104 23 112 36 107 7 -2 11 -20 10 -43z m65 -91 c-3 -60 -1
-68 16 -71 24 -5 46 23 46 59 0 38 9 59 26 59 17 0 17 -14 3 -98 -10 -58 -13
-63 -33 -58 -11 3 -33 6 -48 6 -45 0 -60 25 -53 84 9 71 14 86 31 86 11 0 14
-14 12 -67z m244 22 c26 -11 30 -38 17 -105 -8 -40 -16 -60 -26 -60 -12 0 -14
13 -11 68 3 62 2 67 -19 70 -26 4 -38 -16 -48 -76 -5 -33 -11 -42 -23 -40 -18
4 -18 16 -1 105 l10 52 42 -3 c23 -2 50 -7 59 -11z m280 -2 c22 -19 24 -53 3
-53 -8 0 -19 9 -25 20 -13 24 -37 26 -62 3 -25 -23 -23 -30 10 -25 40 5 82
-31 82 -71 0 -82 -108 -108 -146 -34 -21 40 -11 108 22 147 30 35 85 41 116
13z"/>
<path d="M5216 9483 c-12 -12 -6 -33 9 -33 8 0 15 6 15 14 0 17 -14 28 -24 19z"/>
<path d="M4880 9385 l0 -85 54 0 c66 0 86 21 86 87 0 60 -25 83 -90 83 l-50 0
0 -85z m98 43 c17 -17 15 -74 -4 -92 -8 -9 -26 -16 -40 -16 -23 0 -24 3 -24
60 0 59 0 60 28 60 15 0 33 -5 40 -12z"/>
<path d="M5070 9410 c-27 -27 -25 -66 6 -96 42 -43 104 -15 104 48 0 35 -32
68 -65 68 -14 0 -34 -9 -45 -20z m80 -40 c0 -33 -12 -50 -35 -50 -35 0 -47 46
-19 74 19 20 54 5 54 -24z"/>
<path d="M5210 9365 c0 -51 3 -65 15 -65 12 0 15 14 15 65 0 51 -3 65 -15 65
-12 0 -15 -14 -15 -65z"/>
<path d="M5280 9364 c0 -50 3 -64 15 -64 11 0 15 12 15 49 0 31 5 51 13 54 27
9 37 -6 37 -54 0 -37 4 -49 15 -49 11 0 15 13 15 54 0 63 -10 74 -67 73 l-43
0 0 -63z"/>
<path d="M5445 9416 c-23 -16 -26 -76 -5 -101 10 -12 23 -15 48 -12 28 5 33 3
30 -11 -3 -13 -13 -17 -47 -15 -36 2 -41 0 -31 -13 15 -17 81 -19 98 -2 7 7
12 43 12 90 0 63 -3 78 -15 78 -8 0 -15 -5 -15 -12 0 -9 -3 -9 -12 0 -16 16
-40 15 -63 -2z m73 -53 c-4 -38 -35 -54 -54 -29 -18 25 -18 41 2 60 23 23 56
3 52 -31z"/>
<path d="M9031 9396 c-12 -14 -5 -26 16 -26 15 0 18 26 4 34 -5 3 -14 0 -20
-8z"/>
<path d="M9117 9403 c-4 -3 -7 -12 -7 -20 0 -15 26 -18 34 -4 7 11 -18 33 -27
24z"/>
<path d="M9190 9385 c0 -8 9 -15 20 -15 11 0 20 7 20 15 0 8 -9 15 -20 15 -11
0 -20 -7 -20 -15z"/>
<path d="M4170 8605 c-14 -8 -39 -14 -56 -15 -20 0 -40 -10 -59 -30 -16 -16
-37 -30 -46 -30 -19 0 -49 -36 -49 -58 0 -8 -13 -30 -30 -49 -16 -18 -30 -40
-30 -47 0 -8 -7 -19 -15 -26 -8 -7 -12 -16 -9 -22 3 -5 0 -15 -6 -23 -7 -8
-10 -21 -7 -29 3 -8 3 -17 -1 -21 -4 -4 -8 -45 -9 -91 -1 -68 1 -84 13 -84 12
0 13 -4 3 -21 -6 -12 -9 -38 -5 -59 3 -20 2 -40 -2 -44 -8 -8 -10 -296 -2
-296 3 0 30 7 60 15 30 8 56 15 56 15 10 1 24 -156 24 -263 l0 -136 56 -11
c61 -13 65 -11 101 55 59 110 199 286 272 344 l41 33 34 -21 c30 -19 35 -20
47 -5 14 17 30 99 30 154 0 33 1 34 11 12 9 -17 9 -32 -1 -58 -7 -18 -9 -39
-5 -45 3 -6 1 -29 -6 -50 -11 -31 -11 -41 0 -54 30 -36 36 -14 56 190 7 67 6
278 -2 340 -4 27 -13 59 -21 72 -8 12 -12 27 -8 34 4 6 -2 23 -13 38 -11 15
-30 52 -43 82 -40 96 -128 167 -251 203 -68 19 -95 20 -128 1z m-275 -374 c-4
-23 -11 -44 -17 -47 -6 -4 -8 1 -5 12 3 11 9 34 12 52 10 47 18 32 10 -17z
m180 -218 l50 -16 -40 -18 c-79 -36 -145 -18 -145 38 0 24 2 25 43 19 23 -4
65 -14 92 -23z m347 -4 c-10 -82 -15 -105 -23 -113 -5 -6 -7 21 -5 65 5 89 3
82 19 76 6 -2 11 -15 9 -28z m175 -61 c-3 -7 -5 -2 -5 12 0 14 2 19 5 13 2 -7
2 -19 0 -25z m3 -55 c-11 -17 -11 -17 -6 0 3 10 6 24 7 30 0 9 2 9 5 0 3 -7 0
-20 -6 -30z"/>
<path d="M8261 8333 c-46 -23 -78 -96 -85 -188 -3 -39 -1 -77 4 -85 6 -8 10
-10 10 -4 0 6 10 11 23 10 15 -1 35 -20 66 -66 55 -83 73 -84 85 -7 7 50 11
58 27 54 11 -3 19 -2 20 1 0 4 2 14 3 22 2 8 6 50 10 93 7 82 -5 126 -43 162
-28 24 -81 28 -120 8z m129 -183 c0 -5 -9 -10 -20 -10 -11 0 -20 5 -20 10 0 6
9 10 20 10 11 0 20 -4 20 -10z"/>
<path d="M8819 8321 c-21 -21 -29 -39 -29 -64 0 -40 18 -97 31 -97 12 0 11 17
-1 25 -5 3 -10 14 -10 25 0 13 5 17 20 13 11 -3 20 0 20 6 0 7 10 25 22 41 15
21 25 27 37 21 9 -5 22 -6 30 -3 8 2 20 -3 28 -14 12 -17 13 -16 13 8 0 37
-42 68 -92 68 -30 0 -46 -7 -69 -29z"/>
<path d="M8880 8241 c0 -4 11 -6 25 -3 14 2 25 6 25 8 0 2 -11 4 -25 4 -14 0
-25 -4 -25 -9z"/>
<path d="M8950 8234 c0 -9 5 -14 12 -12 18 6 21 28 4 28 -9 0 -16 -7 -16 -16z"/>
<path d="M6357 8182 c-60 -60 -67 -83 -41 -120 26 -37 67 -29 125 25 27 25 47
48 44 51 -3 3 -27 -15 -53 -41 -26 -26 -57 -47 -68 -47 -25 0 -54 29 -54 54 0
18 107 126 126 126 12 0 34 -21 34 -32 0 -12 -91 -108 -101 -108 -19 0 -7 26
28 62 20 21 32 38 26 38 -6 0 -27 -19 -48 -41 -34 -38 -36 -43 -21 -57 15 -15
21 -12 71 38 56 55 65 76 43 98 -24 24 -54 12 -111 -46z"/>
<path d="M5514 8217 c-3 -8 -4 -47 -2 -88 l3 -74 85 0 85 0 1 35 1 35 -4 -33
-4 -33 -77 3 -77 3 0 75 0 75 65 6 65 6 -68 1 c-49 2 -69 -2 -73 -11z"/>
<path d="M5080 8210 c0 -6 38 -10 94 -10 53 0 98 4 101 10 4 6 -30 10 -94 10
-61 0 -101 -4 -101 -10z"/>
<path d="M5809 8193 c-13 -16 -12 -17 4 -4 9 7 17 15 17 17 0 8 -8 3 -21 -13z"/>
<path d="M5863 8199 c26 -15 21 -35 -24 -84 l-42 -45 49 2 c45 1 46 2 11 5
l-38 4 35 40 c20 21 36 45 36 52 0 16 -20 37 -34 37 -6 0 -3 -5 7 -11z"/>
<path d="M6009 8193 c-13 -17 -13 -17 6 -3 11 8 22 16 24 17 2 2 0 3 -6 3 -6
0 -17 -8 -24 -17z"/>
<path d="M6068 8198 c19 -19 14 -38 -10 -48 -17 -6 -19 -9 -6 -9 27 -1 41 -36
22 -55 -8 -9 -20 -16 -26 -16 -6 0 -8 -3 -5 -6 9 -10 57 24 57 40 0 7 -7 19
-15 26 -11 9 -12 16 -3 30 13 20 5 50 -14 50 -9 0 -9 -3 0 -12z"/>
<path d="M6636 8178 l-18 -33 26 30 25 30 1 -47 c0 -47 -1 -48 -31 -48 -24 0
-30 4 -25 16 3 8 2 12 -4 9 -24 -15 -9 -35 25 -35 26 0 35 -4 36 -17 0 -14 2
-15 6 -3 3 8 11 18 17 22 8 5 7 8 -1 8 -9 0 -13 17 -13 50 0 59 -17 66 -44 18z"/>
<path d="M5664 8172 c-60 -57 -62 -57 -89 -32 -14 13 -25 19 -25 13 0 -5 11
-20 25 -33 l26 -24 52 52 c54 54 63 73 11 24z"/>
<path d="M5128 8163 c28 -2 76 -2 105 0 28 2 5 3 -53 3 -58 0 -81 -1 -52 -3z"/>
<path d="M5128 8113 c28 -2 76 -2 105 0 28 2 5 3 -53 3 -58 0 -81 -1 -52 -3z"/>
<path d="M6006 8085 c4 -8 11 -15 16 -15 6 0 5 6 -2 15 -7 8 -14 15 -16 15 -2
0 -1 -7 2 -15z"/>
<path d="M5080 8068 c0 -4 28 -8 62 -8 34 0 59 2 57 4 -8 8 -119 12 -119 4z"/>
<path d="M5921 8054 c0 -11 3 -14 6 -6 3 7 2 16 -1 19 -3 4 -6 -2 -5 -13z"/>
<path d="M2550 6830 l0 -70 34 0 c19 0 41 3 50 6 18 7 22 49 6 59 -7 4 -7 12
0 25 14 26 -12 50 -56 50 l-34 0 0 -70z m70 30 c0 -15 -7 -20 -25 -20 -18 0
-25 5 -25 20 0 15 7 20 25 20 18 0 25 -5 25 -20z m5 -60 c0 -9 -11 -16 -27
-18 -23 -3 -28 1 -28 18 0 17 5 21 28 18 16 -2 27 -9 27 -18z"/>
<path d="M3070 6875 c0 -21 -3 -24 -17 -17 -34 18 -63 -5 -63 -49 0 -35 17
-47 63 -46 l37 1 0 68 c0 39 -4 68 -10 68 -5 0 -10 -11 -10 -25z m-10 -40 c18
-22 3 -57 -23 -53 -25 3 -34 32 -17 53 16 19 24 19 40 0z"/>
<path d="M2061 6856 c-7 -9 -11 -40 -9 -78 l3 -63 35 0 35 0 3 63 c3 67 -7 92
-38 92 -10 0 -23 -6 -29 -14z m47 -68 c-2 -48 -7 -63 -18 -63 -11 0 -16 15
-18 63 -3 57 -1 62 18 62 19 0 21 -5 18 -62z"/>
<path d="M2154 6847 c-3 -13 -4 -41 -2 -63 3 -37 5 -39 38 -39 35 0 35 0 38
48 4 55 -9 77 -44 77 -16 0 -25 -7 -30 -23z m56 -47 c0 -43 -3 -50 -20 -50
-17 0 -20 7 -20 50 0 43 3 50 20 50 17 0 20 -7 20 -50z"/>
<path d="M2254 6857 c-3 -8 -4 -49 -2 -93 3 -79 3 -79 32 -82 16 -2 32 2 37
10 13 20 11 152 -3 166 -16 16 -57 15 -64 -1z m56 -82 c0 -68 -2 -75 -20 -75
-18 0 -20 7 -20 75 0 68 2 75 20 75 18 0 20 -7 20 -75z"/>
<path d="M2698 6859 c-21 -12 -24 -69 -6 -87 7 -7 21 -12 33 -12 30 0 45 19
45 57 0 27 -5 35 -26 43 -30 12 -25 12 -46 -1z m47 -44 c0 -23 -4 -30 -20 -30
-21 0 -31 25 -21 51 11 28 41 12 41 -21z"/>
<path d="M2815 6855 c-19 -15 -18 -16 13 -10 25 5 32 3 32 -9 0 -9 -11 -16
-27 -18 -22 -2 -28 -8 -28 -28 0 -22 5 -25 38 -27 l37 -1 0 49 c0 27 -4 49 -9
49 -5 0 -15 2 -23 5 -7 3 -22 -2 -33 -10z m45 -59 c0 -17 -27 -29 -35 -16 -4
6 -3 15 0 20 9 15 35 12 35 -4z"/>
<path d="M2943 6862 c-20 -3 -23 -9 -23 -53 0 -27 5 -49 10 -49 6 0 10 17 10
38 0 30 5 41 22 49 25 11 13 21 -19 15z"/>
<path d="M8854 6631 c-35 -15 -64 -60 -64 -99 0 -20 -5 -50 -11 -67 -10 -25
-9 -39 2 -64 8 -17 17 -31 21 -31 4 0 16 14 28 31 21 29 22 41 5 94 -6 19 -2
21 32 22 21 1 41 -4 45 -10 5 -8 8 -6 8 5 0 9 -4 18 -9 20 -5 2 -4 11 3 21 13
16 15 16 37 -3 13 -10 18 -19 11 -20 -9 0 -10 -5 -2 -19 16 -30 12 -52 -10
-58 -16 -4 -18 -9 -9 -19 6 -7 8 -18 4 -24 -11 -17 2 -54 24 -67 17 -11 19 -9
20 25 0 20 0 48 1 62 2 106 -6 150 -30 175 -28 28 -74 39 -106 26z"/>
<path d="M5557 6471 c-61 -64 -69 -89 -37 -121 32 -32 65 -25 121 27 27 25 47
48 44 51 -2 3 -27 -16 -54 -41 -28 -26 -57 -47 -66 -47 -26 0 -57 39 -49 63 3
12 7 22 8 22 1 0 24 22 53 49 39 37 55 47 72 41 11 -3 21 -14 21 -24 0 -24
-96 -116 -105 -101 -4 7 10 29 36 56 53 54 43 59 -12 7 -25 -24 -39 -45 -37
-58 5 -31 22 -24 77 27 51 48 61 74 39 96 -25 25 -55 12 -111 -47z"/>
<path d="M5128 6503 c28 -2 76 -2 105 0 28 2 5 3 -53 3 -58 0 -81 -1 -52 -3z"/>
<path d="M6147 6499 c-23 -13 -47 -62 -47 -94 0 -31 49 -85 77 -85 11 1 6 6
-14 15 -58 25 -70 83 -27 134 46 55 133 31 150 -42 4 -17 9 -27 11 -20 7 21
-27 80 -53 92 -31 14 -73 14 -97 0z"/>
<path d="M6462 6458 c-1 -31 -5 -63 -8 -72 -7 -19 -35 -21 -54 -3 -12 10 -12
9 -1 -5 7 -10 21 -18 31 -18 31 0 41 25 37 92 l-3 63 -2 -57z"/>
<path d="M6643 6435 c0 -44 2 -61 4 -37 2 23 2 59 0 80 -2 20 -4 1 -4 -43z"/>
<path d="M6898 6503 c-2 -5 0 -39 3 -78 l5 -70 2 78 c2 70 -1 90 -10 70z"/>
<path d="M6976 6494 c-16 -41 0 -84 20 -52 5 7 3 8 -5 3 -9 -5 -12 1 -9 21 2
24 9 30 38 35 l35 6 -36 2 c-25 1 -39 -4 -43 -15z"/>
<path d="M5849 6483 c-13 -16 -12 -17 4 -4 16 12 17 10 17 -33 0 -44 -1 -46
-30 -46 -35 0 -35 2 -14 38 l16 27 -21 -25 c-30 -36 -27 -50 14 -50 26 0 35
-4 36 -17 0 -14 2 -15 6 -3 3 8 11 18 17 22 8 5 7 8 -1 8 -9 0 -13 17 -13 50
0 53 -9 61 -31 33z"/>
<path d="M6192 6449 c-2 -26 4 -41 21 -55 22 -19 22 -19 5 1 -9 11 -18 36 -21
55 l-4 35 -1 -36z"/>
<path d="M6512 6430 c-2 -48 11 -71 38 -69 10 0 9 3 -5 8 -15 6 -22 20 -26 57
l-6 49 -1 -45z"/>
<path d="M6686 6457 c3 -10 9 -15 12 -12 3 3 0 11 -7 18 -10 9 -11 8 -5 -6z"/>
<path d="M5128 6453 c28 -2 76 -2 105 0 28 2 5 3 -53 3 -58 0 -81 -1 -52 -3z"/>
<path d="M7034 6437 c39 -29 -5 -83 -46 -58 -22 12 -22 12 -6 -4 23 -24 66
-13 74 20 6 26 -9 55 -29 55 -6 0 -3 -6 7 -13z"/>
<path d="M6741 6408 c-10 -27 -14 -30 -22 -18 -7 11 -8 7 -3 -14 5 -22 2 -32
-11 -43 -11 -7 -14 -13 -8 -13 6 0 15 6 20 13 14 17 45 99 40 104 -3 2 -10
-11 -16 -29z"/>
<path d="M5128 6403 c28 -2 76 -2 105 0 28 2 5 3 -53 3 -58 0 -81 -1 -52 -3z"/>
<path d="M6581 6384 c0 -11 3 -14 6 -6 3 7 2 16 -1 19 -3 4 -6 -2 -5 -13z"/>
<path d="M6275 6371 c-3 -10 -20 -26 -38 -35 -20 -10 -26 -16 -14 -16 19 0 67
42 67 60 0 16 -8 12 -15 -9z"/>
<path d="M5080 6360 c0 -6 27 -10 60 -10 33 0 60 4 60 10 0 6 -27 10 -60 10
-33 0 -60 -4 -60 -10z"/>
<path d="M2675 6109 c-10 -15 3 -25 16 -12 7 7 7 13 1 17 -6 3 -14 1 -17 -5z"/>
<path d="M3080 6106 c0 -9 5 -16 10 -16 6 0 10 4 10 9 0 6 -4 13 -10 16 -5 3
-10 -1 -10 -9z"/>
<path d="M3020 6040 c0 -56 3 -70 15 -70 12 0 15 14 15 70 0 56 -3 70 -15 70
-12 0 -15 -14 -15 -70z"/>
<path d="M2558 6093 c20 -4 22 -10 22 -64 0 -46 3 -59 15 -59 12 0 15 13 15
59 0 54 2 60 23 64 12 2 -5 4 -38 4 -33 0 -50 -2 -37 -4z"/>
<path d="M2061 6076 c-6 -7 -8 -21 -5 -30 5 -14 19 -16 78 -14 60 3 71 6 74
22 2 10 -2 22 -10 27 -22 14 -124 11 -137 -5z m129 -21 c0 -13 -11 -15 -57
-13 -81 4 -85 28 -4 28 48 0 61 -3 61 -15z"/>
<path d="M2244 6075 c-10 -26 4 -45 34 -45 38 0 60 24 42 45 -7 8 -26 15 -42
15 -16 0 -31 -6 -34 -15z m66 -15 c0 -6 -7 -13 -15 -16 -20 -8 -48 3 -40 16 8
13 55 13 55 0z"/>
<path d="M2670 6020 c0 -27 5 -50 10 -50 6 0 10 23 10 50 0 28 -4 50 -10 50
-5 0 -10 -22 -10 -50z"/>
<path d="M2730 6018 c0 -26 5 -48 10 -48 6 0 10 18 10 40 0 33 3 40 20 40 17
0 20 -7 20 -40 0 -51 18 -53 22 -3 2 27 8 39 21 41 14 3 17 -4 17 -37 0 -30 4
-41 15 -41 17 0 21 51 5 80 -8 14 -22 18 -75 17 l-65 0 0 -49z"/>
<path d="M2910 6051 c-17 -32 -12 -60 14 -76 19 -13 29 -14 45 -5 28 14 27 22
-2 15 -15 -4 -28 -1 -36 9 -12 14 -9 16 22 16 42 0 52 11 37 40 -14 27 -65 27
-80 1z m60 -12 c0 -5 -12 -9 -26 -9 -22 0 -24 2 -14 14 12 15 40 11 40 -5z"/>
<path d="M3080 6020 c0 -27 5 -50 10 -50 6 0 10 23 10 50 0 28 -4 50 -10 50
-5 0 -10 -22 -10 -50z"/>
<path d="M3130 6019 c0 -57 17 -66 22 -11 2 30 7 38 26 40 20 3 22 -1 22 -37
0 -23 5 -41 11 -41 6 0 9 19 7 48 l-3 47 -42 1 -43 2 0 -49z"/>
<path d="M3262 6058 c-13 -13 -16 -57 -4 -74 13 -20 47 -25 68 -9 18 14 17 15
-15 12 -20 -1 -36 3 -38 11 -3 8 7 12 31 12 28 0 36 4 36 18 0 24 -19 42 -45
42 -12 0 -26 -5 -33 -12z m58 -19 c0 -5 -12 -9 -26 -9 -22 0 -24 2 -14 14 12
15 40 11 40 -5z"/>
<path d="M2084 5985 c-12 -29 16 -45 76 -45 60 0 88 16 76 45 -4 11 -22 15
-76 15 -54 0 -72 -4 -76 -15z m134 -12 c3 -10 -13 -13 -57 -13 -57 0 -71 6
-54 24 12 12 106 2 111 -11z"/>
<path d="M2160 5905 c-7 -8 -10 -22 -6 -30 5 -13 20 -15 78 -13 62 3 73 6 76
22 5 27 -15 36 -79 36 -38 0 -61 -5 -69 -15z m130 -15 c0 -6 -27 -10 -60 -10
-33 0 -60 4 -60 10 0 6 27 10 60 10 33 0 60 -4 60 -10z"/>
<path d="M2770 5262 l0 -69 37 -1 c45 -2 63 12 63 48 0 34 -22 54 -55 48 -21
-4 -25 -1 -25 18 0 13 -4 24 -10 24 -6 0 -10 -29 -10 -68z m75 -13 c10 -30
-18 -57 -39 -39 -16 13 -21 42 -9 53 14 14 42 6 48 -14z"/>
<path d="M2900 5260 c0 -40 4 -70 10 -70 6 0 10 30 10 70 0 40 -4 70 -10 70
-6 0 -10 -30 -10 -70z"/>
<path d="M3250 5285 l-44 -45 -23 22 c-33 31 -42 13 -10 -20 l27 -27 57 58
c32 31 53 57 47 57 -5 0 -30 -20 -54 -45z"/>
<path d="M2057 5314 c-4 -4 -7 -42 -7 -85 0 -97 2 -99 142 -99 137 0 140 2
136 105 l-3 80 -131 3 c-71 1 -133 -1 -137 -4z m78 -29 c0 -13 -8 -21 -24 -23
-28 -4 -46 11 -37 33 9 25 61 16 61 -10z m170 0 c0 -18 -8 -20 -69 -23 -72 -3
-93 5 -82 33 5 13 19 15 78 13 65 -3 73 -5 73 -23z m-165 -55 c0 -16 -7 -20
-35 -20 -28 0 -35 4 -35 20 0 16 7 20 35 20 28 0 35 -4 35 -20z m170 0 c0 -18
-7 -20 -74 -20 -41 0 -78 5 -81 10 -13 22 9 30 81 30 67 0 74 -2 74 -20z
m-170 -60 c0 -16 -7 -20 -35 -20 -28 0 -35 4 -35 20 0 16 7 20 35 20 28 0 35
-4 35 -20z m170 0 c0 -18 -7 -20 -74 -20 -41 0 -78 5 -81 10 -13 22 9 30 81
30 67 0 74 -2 74 -20z"/>
<path d="M2558 5313 c20 -4 22 -10 22 -64 0 -46 3 -59 15 -59 12 0 15 13 15
59 0 54 2 60 23 64 12 2 -5 4 -38 4 -33 0 -50 -2 -37 -4z"/>
<path d="M2667 5283 c-14 -14 -6 -23 11 -14 13 7 23 6 30 -1 9 -9 4 -15 -21
-22 -22 -8 -32 -17 -32 -31 0 -17 7 -20 43 -21 41 -2 42 -1 42 31 0 50 -9 65
-39 65 -15 0 -31 -3 -34 -7z m41 -69 c-9 -9 -21 -13 -27 -10 -20 13 -11 26 16
26 25 0 26 -1 11 -16z"/>
<path d="M2962 5278 c-7 -7 -12 -27 -12 -45 0 -36 26 -55 62 -45 32 8 30 22
-3 20 -18 -2 -34 2 -36 10 -3 8 7 12 31 12 28 0 36 4 36 18 0 24 -19 42 -45
42 -12 0 -26 -5 -33 -12z m39 -26 c-28 -4 -40 6 -21 18 9 6 20 4 29 -3 12 -10
11 -13 -8 -15z"/>
<path d="M8833 4606 c-50 -23 -85 -101 -87 -195 l-1 -76 27 3 c28 3 56 -27
100 -108 28 -50 51 -37 62 33 7 50 11 58 27 54 11 -3 19 -2 20 1 0 4 2 14 3
22 2 8 6 50 10 92 6 66 4 83 -13 116 -11 21 -26 44 -34 51 -24 19 -79 23 -114
7z m127 -186 c0 -5 -9 -10 -20 -10 -11 0 -20 5 -20 10 0 6 9 10 20 10 11 0 20
-4 20 -10z"/>
<path d="M8295 4603 c-38 -8 -65 -26 -65 -44 0 -10 -4 -20 -8 -23 -14 -8 3
-95 22 -114 15 -15 16 -15 16 0 0 9 -4 20 -10 23 -18 11 -11 33 9 28 16 -4 21
2 26 31 4 20 12 37 19 37 6 1 23 3 38 5 20 2 29 -3 33 -17 4 -10 11 -19 17
-19 5 0 7 7 4 16 -3 9 -6 24 -6 34 0 16 -51 52 -69 49 -3 -1 -15 -3 -26 -6z"/>
<path d="M5557 4451 c-61 -64 -69 -89 -37 -121 32 -32 65 -25 121 27 27 25 47
48 44 51 -3 3 -27 -16 -54 -42 -41 -40 -54 -48 -75 -42 -32 8 -50 39 -37 64 5
9 32 39 59 66 51 49 75 55 89 20 8 -21 -87 -118 -101 -104 -7 7 5 26 34 57
l45 46 -48 -39 c-32 -26 -47 -45 -45 -58 5 -34 25 -28 77 22 51 49 62 77 39
100 -25 25 -55 12 -111 -47z"/>
<path d="M5128 4483 c28 -2 76 -2 105 0 28 2 5 3 -53 3 -58 0 -81 -1 -52 -3z"/>
<path d="M5830 4436 c-16 -25 -30 -49 -30 -55 0 -6 16 -11 35 -11 26 0 35 -4
36 -17 0 -14 2 -15 6 -3 3 8 11 18 17 22 8 5 7 8 -1 8 -9 0 -13 17 -13 50 0
28 -4 50 -10 50 -5 0 -23 -20 -40 -44z m40 -11 c0 -43 -1 -45 -30 -45 -16 0
-30 2 -30 5 0 7 52 85 56 85 2 0 4 -20 4 -45z"/>
<path d="M5128 4433 c28 -2 76 -2 105 0 28 2 5 3 -53 3 -58 0 -81 -1 -52 -3z"/>
<path d="M8330 4423 c0 -6 -3 -18 -6 -27 -5 -13 1 -16 25 -16 22 0 31 5 31 16
0 10 -6 14 -15 10 -8 -3 -19 2 -24 12 -6 9 -11 12 -11 5z"/>
<path d="M2110 4401 c0 -5 -9 -13 -20 -16 -19 -6 -20 -13 -18 -108 l3 -102
115 0 115 0 3 103 c2 61 -1 102 -7 102 -5 0 -17 8 -27 17 -13 13 -19 14 -22 5
-5 -15 -122 -17 -122 -2 0 6 -4 10 -10 10 -5 0 -10 -4 -10 -9z m178 -138 l-3
-68 -95 0 -95 0 -3 68 -3 67 101 0 101 0 -3 -67z"/>
<path d="M2120 4290 c0 -5 5 -10 10 -10 6 0 10 5 10 10 0 6 -4 10 -10 10 -5 0
-10 -4 -10 -10z"/>
<path d="M2180 4290 c0 -5 5 -10 10 -10 6 0 10 5 10 10 0 6 -4 10 -10 10 -5 0
-10 -4 -10 -10z"/>
<path d="M2120 4240 c0 -5 5 -10 10 -10 6 0 10 5 10 10 0 6 -4 10 -10 10 -5 0
-10 -4 -10 -10z"/>
<path d="M2180 4240 c0 -5 5 -10 10 -10 6 0 10 5 10 10 0 6 -4 10 -10 10 -5 0
-10 -4 -10 -10z"/>
<path d="M2810 4326 c0 -44 4 -76 10 -76 6 0 10 30 10 69 0 39 -4 73 -10 76
-6 4 -10 -22 -10 -69z"/>
<path d="M3170 4370 c0 -28 -2 -29 -21 -18 -18 11 -23 10 -40 -11 -38 -46 -17
-92 41 -89 l40 1 0 74 c0 42 -4 73 -10 73 -5 0 -10 -14 -10 -30z m-5 -65 c0
-23 -5 -31 -22 -33 -19 -3 -23 1 -23 26 0 33 8 44 30 40 9 -2 15 -14 15 -33z"/>
<path d="M2556 4368 c-36 -51 -8 -118 48 -118 19 0 39 7 46 15 16 20 5 32 -14
16 -8 -7 -25 -11 -38 -9 -20 3 -23 9 -23 48 0 39 3 45 23 48 13 2 30 -2 38 -9
19 -16 30 -4 14 16 -19 23 -76 19 -94 -7z"/>
<path d="M5128 4383 c28 -2 76 -2 105 0 28 2 5 3 -53 3 -58 0 -81 -1 -52 -3z"/>
<path d="M2704 4345 c-18 -14 -17 -14 14 -9 25 5 32 3 32 -10 0 -10 -8 -16
-23 -16 -32 0 -49 -19 -36 -41 6 -13 20 -18 44 -17 35 1 35 1 35 49 0 33 -4
49 -16 53 -23 9 -28 8 -50 -9z m46 -60 c0 -8 -9 -15 -20 -15 -20 0 -26 11 -13
23 12 13 33 7 33 -8z"/>
<path d="M2876 4347 c-21 -16 -24 -60 -6 -82 16 -19 54 -19 70 0 10 12 6 13
-24 8 -29 -4 -36 -2 -36 11 0 12 9 16 35 16 39 0 46 17 19 44 -19 19 -35 20
-58 3z m52 -24 c2 -8 -6 -13 -22 -13 -25 0 -33 10 -19 24 10 10 36 3 41 -11z"/>
<path d="M2980 4303 c0 -29 5 -53 10 -53 6 0 10 18 10 40 0 28 5 43 16 47 21
8 34 -13 34 -54 0 -18 5 -33 10 -33 13 0 13 70 0 90 -5 9 -24 15 -45 15 l-35
0 0 -52z"/>
<path d="M3234 4345 c-18 -14 -17 -15 13 -12 41 3 47 -16 7 -23 -23 -4 -29
-10 -29 -30 0 -23 4 -25 43 -26 l42 -1 0 43 c0 33 -5 46 -19 54 -26 13 -34 13
-57 -5z m47 -60 c0 -5 -9 -11 -21 -13 -20 -3 -27 8 -13 22 10 9 34 3 34 -9z"/>
<path d="M3363 4353 c-20 -4 -23 -11 -23 -54 0 -27 5 -49 10 -49 6 0 10 18 10
39 0 31 4 41 20 46 18 6 29 27 13 24 -5 -1 -18 -4 -30 -6z"/>
<path d="M5080 4340 c0 -6 27 -10 60 -10 33 0 60 4 60 10 0 6 -27 10 -60 10
-33 0 -60 -4 -60 -10z"/>
<path d="M1120 3919 c-13 -6 -33 -18 -43 -27 -11 -9 -31 -15 -47 -14 -36 4
-73 -15 -129 -66 -41 -39 -43 -43 -40 -91 2 -28 0 -51 -4 -51 -5 0 -6 -4 -3
-9 3 -4 -1 -17 -9 -27 -8 -10 -15 -14 -15 -8 0 5 5 15 12 22 9 9 9 12 0 12
-23 0 -26 -50 -4 -80 15 -20 23 -50 28 -106 8 -89 15 -110 44 -119 11 -3 20
-12 20 -20 0 -7 11 -16 24 -19 15 -4 26 -14 28 -28 5 -34 36 -35 44 -3 8 31
-13 76 -38 83 -10 2 -27 20 -39 39 -18 28 -20 39 -11 59 l11 24 34 -20 c53
-31 74 -16 68 48 -1 13 5 35 15 49 12 19 15 39 11 75 -5 37 -3 48 8 48 7 0 28
12 46 27 24 21 40 26 70 24 21 -1 48 3 60 9 31 17 63 -3 110 -68 37 -53 38
-53 45 -28 4 16 1 32 -7 42 -7 8 -13 36 -14 62 -1 26 -7 58 -14 70 -16 30 -69
62 -103 62 -16 0 -37 9 -48 20 -22 22 -68 25 -110 9z"/>
<path d="M5032 3698 l-2 -48 -44 0 c-61 0 -68 -18 -9 -22 l48 -3 6 -45 6 -45
1 48 2 47 45 0 c25 0 45 5 45 10 0 6 -20 10 -44 10 l-45 0 -4 48 -3 47 -2 -47z"/>
<path d="M5520 3695 c0 -34 -12 -46 -25 -25 -11 17 -43 11 -59 -12 -22 -31
-20 -71 5 -93 17 -16 25 -17 50 -8 16 6 29 7 29 2 0 -5 5 -9 10 -9 6 0 10 37
10 90 0 53 -4 90 -10 90 -5 0 -10 -16 -10 -35z m-10 -56 c14 -26 6 -65 -16
-73 -38 -15 -66 30 -48 78 9 23 51 20 64 -5z"/>
<path d="M5670 3695 c0 -34 -12 -46 -25 -25 -20 32 -75 -8 -75 -54 0 -57 45
-87 78 -54 10 10 15 10 22 -2 7 -10 10 16 10 78 0 50 -2 92 -5 92 -3 0 -5 -16
-5 -35z m-8 -60 c9 -19 8 -29 -6 -50 -28 -43 -66 -26 -66 30 0 38 6 45 37 45
15 0 27 -9 35 -25z"/>
<path d="M6420 3695 c0 -34 -12 -46 -25 -25 -10 16 -40 12 -58 -8 -47 -52 13
-148 61 -100 10 10 15 10 22 -2 7 -10 10 16 10 78 0 50 -2 92 -5 92 -3 0 -5
-16 -5 -35z m-10 -55 c6 -12 8 -29 5 -39 -17 -56 -75 -45 -75 13 0 18 3 36 7
39 14 15 53 6 63 -13z"/>
<path d="M5320 3717 c0 -2 -13 -40 -30 -85 -16 -45 -25 -82 -20 -82 6 0 15 11
20 25 8 20 16 25 45 25 29 0 36 -4 41 -25 6 -23 24 -36 24 -17 0 24 -57 162
-67 162 -7 0 -13 -1 -13 -3z m40 -94 c0 -7 -11 -13 -25 -13 -28 0 -31 13 -14
57 l11 28 14 -30 c7 -16 13 -36 14 -42z"/>
<path d="M5795 3666 c-17 -12 -15 -14 20 -12 30 1 40 -3 43 -16 3 -14 -3 -18
-25 -18 -42 0 -71 -24 -57 -47 14 -22 50 -29 70 -13 10 9 14 9 14 1 0 -6 5
-11 10 -11 6 0 10 22 10 49 0 72 -38 102 -85 67z m65 -70 c0 -21 -27 -38 -50
-31 -20 6 -26 25 -13 38 12 13 63 7 63 -7z"/>
<path d="M5987 3662 c-36 -40 -12 -112 36 -112 26 0 54 16 45 25 -3 4 -15 1
-26 -6 -36 -22 -68 22 -51 69 9 24 47 30 67 10 9 -9 12 -9 12 0 0 13 -31 32
-53 32 -8 0 -21 -8 -30 -18z"/>
<path d="M6123 3673 c-27 -10 -11 -21 22 -16 31 5 35 3 35 -16 0 -16 -6 -21
-29 -21 -33 0 -54 -21 -49 -47 4 -22 43 -29 64 -13 10 9 14 9 14 1 0 -6 5 -11
10 -11 6 0 10 25 10 55 0 43 -4 56 -19 65 -21 11 -38 12 -58 3z m55 -79 c-5
-25 -35 -41 -49 -27 -18 18 -3 43 26 43 19 0 26 -5 23 -16z"/>
<path d="M6240 3617 c0 -43 4 -66 10 -62 6 3 10 27 10 52 0 36 4 46 20 50 11
3 20 9 20 14 0 13 -14 11 -28 -3 -10 -10 -15 -10 -22 2 -7 10 -10 -7 -10 -53z"/>
<path d="M1381 3599 c-18 -6 -31 -12 -29 -15 8 -7 68 8 68 17 0 5 -1 9 -2 8
-2 0 -18 -5 -37 -10z"/>
<path d="M1228 3571 c-35 -7 -73 -29 -65 -38 2 -2 17 3 33 12 16 8 41 15 57
15 15 0 27 5 27 10 0 6 -3 9 -7 9 -5 -1 -25 -5 -45 -8z"/>
<path d="M1381 3571 c-10 -6 -10 -10 -1 -16 13 -8 24 -1 19 14 -3 6 -10 7 -18
2z"/>
<path d="M1216 3532 c-2 -4 6 -9 19 -10 13 -1 27 3 30 8 3 6 -5 10 -19 10 -14
0 -27 -4 -30 -8z"/>
<path d="M1397 3461 c-4 -17 -3 -21 5 -13 5 5 8 16 6 23 -3 8 -7 3 -11 -10z"/>
<path d="M2920 3345 c0 -43 4 -75 10 -75 6 0 10 18 10 40 0 28 5 43 16 47 21
8 34 -13 34 -54 0 -18 5 -33 10 -33 6 0 10 20 10 44 0 48 -18 71 -50 63 -16
-4 -20 0 -20 19 0 13 -4 24 -10 24 -6 0 -10 -32 -10 -75z"/>
<path d="M3040 3346 l0 -74 41 2 c22 1 45 9 50 17 25 40 -5 95 -47 85 -21 -6
-24 -3 -24 19 0 14 -4 25 -10 25 -6 0 -10 -31 -10 -74z m69 -5 c13 -24 -9 -57
-33 -48 -16 6 -22 47 -9 60 12 13 32 7 42 -12z"/>
<path d="M3550 3395 c0 -22 -3 -25 -24 -19 -19 4 -28 0 -42 -21 -16 -25 -16
-30 -3 -54 12 -20 23 -26 52 -27 l37 -1 0 73 c0 43 -4 74 -10 74 -5 0 -10 -11
-10 -25z m-5 -70 c0 -23 -4 -30 -20 -30 -21 0 -31 25 -21 51 11 28 41 12 41
-21z"/>
<path d="M2550 3340 l0 -70 33 0 c50 0 77 24 77 70 0 49 -21 70 -71 70 l-39 0
0 -70z m78 38 c29 -29 2 -88 -39 -88 -16 0 -19 7 -19 50 0 46 2 50 23 50 13 0
28 -5 35 -12z"/>
<path d="M2132 3363 c-40 -20 -62 -59 -62 -113 l0 -40 120 0 120 0 0 43 c0 23
-5 49 -10 57 -10 16 -11 15 -13 -45 l-2 -40 -91 -3 c-108 -3 -123 5 -104 62
16 50 55 78 105 76 55 -2 64 0 40 10 -31 13 -67 11 -103 -7z"/>
<path d="M2700 3366 c-11 -14 -9 -15 19 -10 24 5 31 3 31 -9 0 -10 -11 -17
-27 -19 -22 -2 -28 -8 -28 -28 0 -22 4 -25 38 -25 l38 -1 -3 51 c-3 45 -5 50
-29 53 -14 2 -31 -4 -39 -12z m50 -61 c0 -8 -9 -15 -20 -15 -11 0 -20 7 -20
15 0 8 9 15 20 15 11 0 20 -7 20 -15z"/>
<path d="M2810 3366 c-16 -20 -1 -41 36 -50 37 -10 18 -29 -19 -20 -28 6 -30
5 -18 -10 24 -29 81 -14 81 22 0 7 -13 18 -30 23 -37 13 -40 34 -4 25 19 -5
25 -3 22 6 -7 19 -53 21 -68 4z"/>
<path d="M3176 3364 c-32 -31 -10 -94 33 -94 23 0 51 31 51 58 0 26 -25 52
-50 52 -10 0 -26 -7 -34 -16z m59 -23 c8 -26 -4 -51 -26 -51 -20 0 -36 40 -24
59 10 18 43 12 50 -8z"/>
<path d="M3297 3373 c-14 -13 -6 -22 17 -20 36 3 36 -17 0 -23 -20 -4 -30 -12
-32 -28 -4 -24 -4 -24 51 -27 l37 -2 0 41 c0 23 -5 47 -12 54 -13 13 -50 16
-61 5z m51 -65 c-5 -15 -48 -24 -48 -10 0 14 12 22 33 22 10 0 17 -5 15 -12z"/>
<path d="M3400 3323 c0 -29 5 -53 10 -53 6 0 10 18 10 41 0 32 4 42 20 46 30
8 24 20 -10 20 -30 0 -30 -1 -30 -54z"/>
<path d="M1256 3354 c-3 -9 -6 -44 -6 -80 0 -60 1 -64 26 -70 35 -9 100 1 129
20 34 22 36 91 4 99 -12 3 -18 10 -14 16 3 6 3 11 -2 11 -13 0 -28 -14 -29
-27 -2 -29 -5 -33 -23 -33 -19 0 -61 47 -61 69 0 17 -17 13 -24 -5z"/>
<path d="M2220 3305 c-24 -25 -41 -48 -37 -52 4 -4 28 14 53 39 26 25 42 48
37 51 -5 4 -29 -14 -53 -38z"/>
<path d="M2180 3330 c0 -5 5 -10 10 -10 6 0 10 5 10 10 0 6 -4 10 -10 10 -5 0
-10 -4 -10 -10z"/>
<path d="M2130 3310 c0 -5 5 -10 10 -10 6 0 10 5 10 10 0 6 -4 10 -10 10 -5 0
-10 -4 -10 -10z"/>
<path d="M2110 3260 c0 -5 5 -10 11 -10 5 0 7 5 4 10 -3 6 -8 10 -11 10 -2 0
-4 -4 -4 -10z"/>
<path d="M2160 2607 c-42 -21 -56 -58 -42 -112 15 -56 59 -128 75 -123 17 5
66 107 73 149 10 61 -54 112 -106 86z m56 -35 c17 -11 22 -35 13 -59 -16 -44
-89 -22 -89 26 0 28 50 51 76 33z"/>
<path d="M2550 2550 c0 -40 4 -70 10 -70 6 0 10 21 11 48 l0 47 23 -50 c24
-53 25 -53 58 15 l16 35 1 -47 c1 -27 6 -48 11 -48 6 0 10 30 10 70 0 86 -19
95 -46 20 -10 -27 -21 -50 -25 -50 -4 0 -15 23 -25 50 -26 74 -44 66 -44 -20z"/>
<path d="M2743 2579 c-33 -12 -28 -22 7 -14 23 5 30 3 30 -8 0 -8 -13 -17 -31
-21 -25 -5 -30 -10 -27 -28 3 -20 9 -23 46 -24 42 -1 42 -1 42 35 0 55 -24 76
-67 60z m41 -58 c3 -5 -1 -14 -10 -21 -11 -10 -18 -10 -27 -1 -9 9 -9 14 3 21
19 12 27 12 34 1z"/>
<path d="M2880 2580 c-7 -4 -19 -6 -27 -3 -10 4 -13 -11 -13 -66 0 -41 4 -71
10 -71 6 0 10 10 10 23 0 20 4 23 29 19 22 -3 32 1 41 18 22 42 -15 102 -50
80z m28 -49 c3 -29 1 -32 -20 -29 -26 3 -35 32 -17 54 18 22 34 12 37 -25z"/>
<path d="M7050 2506 c0 -71 3 -86 15 -86 13 0 15 14 13 82 -2 54 -7 83 -15 86
-10 3 -13 -18 -13 -82z"/>
<path d="M7120 2505 c0 -50 4 -85 10 -85 6 0 10 35 10 85 0 50 -4 85 -10 85
-6 0 -10 -35 -10 -85z"/>
<path d="M6760 2500 c0 -64 3 -80 15 -80 10 0 15 10 15 29 0 43 14 45 41 6 13
-19 32 -35 41 -35 15 0 12 8 -14 45 l-32 45 27 28 c15 15 27 31 27 35 0 18
-26 4 -56 -30 l-33 -38 -1 38 c0 26 -4 37 -15 37 -12 0 -15 -16 -15 -80z"/>
<path d="M7380 2500 c0 -64 3 -80 15 -80 10 0 15 10 15 30 0 19 5 30 14 30 8
0 23 -13 33 -30 9 -16 23 -30 30 -30 16 0 16 2 1 35 -9 19 -9 28 0 37 7 7 12
24 12 40 0 33 -24 48 -79 48 l-41 0 0 -80z m85 30 c0 -20 -6 -26 -27 -28 -25
-3 -28 0 -28 28 0 28 3 31 28 28 21 -2 27 -8 27 -28z"/>
<path d="M7802 2498 l2 -73 4 60 3 60 20 -35 c22 -38 21 -35 -1 23 -8 20 -18
37 -22 37 -4 0 -7 -33 -6 -72z"/>
<path d="M7910 2549 c-7 -11 -9 -23 -6 -27 3 -3 7 1 8 9 1 8 4 -11 8 -41 l7
-55 1 68 c1 37 0 67 -3 67 -2 0 -9 -9 -15 -21z"/>
<path d="M8257 2563 c-4 -3 -7 -11 -7 -17 0 -6 4 -5 9 2 11 19 55 11 59 -10 2
-9 -13 -34 -32 -56 -20 -22 -36 -42 -36 -46 0 -3 19 -5 43 -4 36 1 38 2 10 5
-18 2 -33 7 -33 10 0 3 14 21 30 40 33 37 37 52 18 71 -13 13 -50 16 -61 5z"/>
<path d="M8382 2558 c-13 -13 -16 -86 -3 -106 4 -7 6 12 3 42 -4 47 -2 57 13
62 10 4 27 2 37 -5 16 -10 19 -10 16 1 -6 17 -50 22 -66 6z"/>
<path d="M8815 2560 c-3 -5 -2 -10 4 -10 5 0 12 -26 14 -57 l3 -58 2 68 c2 61
-7 83 -23 57z"/>
<path d="M8902 2558 c-7 -7 -12 -19 -11 -27 0 -10 4 -7 9 7 11 26 45 29 59 5
6 -10 11 -13 11 -7 0 15 -22 34 -40 34 -9 0 -21 -5 -28 -12z"/>
<path d="M9119 2553 c-13 -16 -12 -17 4 -4 16 12 17 10 17 -34 l0 -47 -35 4
c-19 2 -35 0 -35 -4 0 -4 15 -8 34 -8 19 0 36 -4 38 -9 2 -5 9 -3 16 5 7 8 8
14 2 14 -5 0 -10 22 -10 50 0 53 -9 61 -31 33z"/>
<path d="M9214 2555 c-18 -14 -18 -14 3 -8 20 5 22 1 26 -53 l3 -59 2 68 c2
70 -2 76 -34 52z"/>
<path d="M9390 2560 c0 -5 5 -10 10 -10 6 0 10 5 10 10 0 6 -4 10 -10 10 -5 0
-10 -4 -10 -10z"/>
<path d="M9492 2498 l2 -73 4 60 c3 58 4 59 18 35 10 -16 13 -18 9 -5 -4 11
-10 28 -12 38 -12 40 -23 12 -21 -55z"/>
<path d="M9600 2549 c-7 -11 -9 -23 -6 -27 3 -3 7 1 8 9 1 8 4 -11 8 -41 l7
-55 1 68 c1 37 0 67 -3 67 -2 0 -9 -9 -15 -21z"/>
<path d="M8672 2504 c-2 -49 1 -63 14 -68 13 -5 14 -3 6 7 -6 7 -12 37 -15 67
l-3 55 -2 -61z"/>
<path d="M6922 2528 c-46 -58 5 -141 67 -108 12 6 21 15 21 20 0 13 -6 13 -29
-2 -15 -9 -23 -9 -35 1 -27 22 -18 31 29 31 49 0 56 10 29 48 -17 24 -65 30
-82 10z m66 -25 c2 -9 -7 -13 -27 -13 -23 0 -29 4 -24 16 6 17 44 15 51 -3z"/>
<path d="M7173 2528 c3 -7 14 -37 23 -67 17 -50 17 -54 1 -66 -22 -16 -22 -25
2 -25 26 0 38 17 66 99 19 57 21 71 9 71 -8 0 -19 -18 -26 -45 -7 -25 -15 -45
-19 -45 -4 0 -12 20 -18 45 -7 29 -17 45 -27 45 -9 0 -13 -6 -11 -12z"/>
<path d="M9371 2509 c-13 -39 -14 -46 -2 -33 9 10 24 64 17 64 -2 0 -9 -14
-15 -31z"/>
<path d="M9417 2515 c3 -16 12 -41 20 -55 l14 -25 -7 25 c-4 14 -12 39 -20 55
l-13 30 6 -30z"/>
<path d="M6298 2515 c-27 -15 -62 -87 -57 -121 1 -11 -3 -32 -10 -48 -9 -23
-9 -36 1 -60 7 -17 12 -35 10 -40 -2 -5 4 -6 13 -2 9 3 19 6 21 6 2 0 4 6 4
14 0 7 7 19 16 27 16 13 15 43 -1 99 -6 20 -5 23 5 13 10 -9 18 -9 33 -1 16 8
23 7 33 -6 10 -14 12 -15 17 -2 4 9 2 18 -3 21 -7 4 -6 13 0 26 9 15 14 17 29
7 10 -6 19 -21 20 -32 0 -12 2 -34 3 -50 3 -25 -1 -31 -22 -36 -24 -6 -24 -6
-5 -17 15 -9 17 -15 8 -24 -19 -19 10 -78 39 -79 4 0 7 15 7 33 1 17 1 46 2
62 0 17 -1 61 -3 99 -3 62 -6 70 -36 97 -36 33 -80 37 -124 14z"/>
<path d="M8028 2518 c18 -18 15 -26 -15 -31 l-28 -4 29 -2 c20 -1 27 -5 23
-16 -4 -8 -2 -17 3 -20 11 -7 14 44 4 69 -3 9 -11 16 -17 16 -7 0 -7 -4 1 -12z"/>
<path d="M8081 2520 c0 -8 4 -22 9 -30 12 -18 12 -2 0 25 -6 13 -9 15 -9 5z"/>
<path d="M8145 2519 c-4 -6 -5 -12 -2 -15 2 -3 7 2 10 11 7 17 1 20 -8 4z"/>
<path d="M8451 2504 c-1 -33 -17 -59 -41 -67 -12 -4 -11 -6 2 -6 25 -1 50 42
45 76 l-4 28 -2 -31z"/>
<path d="M8605 2520 c3 -5 8 -10 11 -10 2 0 4 5 4 10 0 6 -5 10 -11 10 -5 0
-7 -4 -4 -10z"/>
<path d="M9090 2510 c-6 -11 -8 -20 -6 -20 3 0 10 9 16 20 6 11 8 20 6 20 -3
0 -10 -9 -16 -20z"/>
<path d="M8966 2487 c-5 -25 -15 -41 -29 -48 -19 -8 -20 -9 -2 -6 22 3 48 48
43 75 -2 9 -7 0 -12 -21z"/>
<path d="M7886 2495 c-9 -26 -7 -32 5 -12 6 10 9 21 6 23 -2 3 -7 -2 -11 -11z"/>
<path d="M9570 2479 l-13 -31 -13 24 c-7 12 -13 18 -14 12 0 -5 6 -19 14 -29
13 -18 14 -17 30 14 10 18 15 35 13 37 -2 3 -10 -9 -17 -27z"/>
<path d="M8554 2475 c-3 -8 -4 -20 -1 -27 3 -7 6 -3 6 9 1 17 8 23 34 26 l32
4 -33 1 c-21 1 -35 -3 -38 -13z"/>
<path d="M7971 2464 c-1 -20 26 -41 37 -29 3 3 0 5 -7 5 -6 0 -16 10 -21 23
-9 22 -9 22 -9 1z"/>
<path d="M8890 2466 c0 -8 4 -17 9 -20 5 -4 7 3 4 14 -6 23 -13 26 -13 6z"/>
<path d="M7854 2458 c3 -15 26 -23 26 -8 0 6 -4 9 -9 6 -5 -4 -12 -1 -14 4 -3
6 -4 5 -3 -2z"/>
<path d="M8107 2452 c1 -8 3 -19 3 -25 0 -7 4 -6 10 3 12 19 13 33 1 26 -5 -4
-11 -3 -14 1 -2 5 -2 2 0 -5z"/>
<path d="M7545 2440 c-7 -12 2 -30 16 -30 5 0 9 9 9 20 0 21 -15 27 -25 10z"/>
<path d="M7630 1965 c0 -50 4 -85 10 -85 6 0 10 20 10 44 0 46 19 72 45 62 11
-4 15 -20 15 -56 0 -27 5 -50 10 -50 12 0 13 90 1 109 -6 9 -20 12 -40 9 -28
-4 -31 -2 -31 24 0 15 -4 28 -10 28 -6 0 -10 -35 -10 -85z"/>
<path d="M7770 2040 c0 -5 5 -10 10 -10 6 0 10 5 10 10 0 6 -4 10 -10 10 -5 0
-10 -4 -10 -10z"/>
<path d="M8240 1965 c0 -50 4 -85 10 -85 6 0 10 22 10 49 0 34 4 51 15 55 32
12 45 -5 45 -55 0 -27 5 -49 10 -49 6 0 10 22 10 49 0 55 -16 76 -55 69 -22
-5 -25 -2 -25 23 0 16 -4 29 -10 29 -6 0 -10 -35 -10 -85z"/>
<path d="M8653 1965 c0 -49 2 -78 4 -62 5 34 19 34 45 2 11 -14 24 -25 30 -25
6 0 -1 15 -15 33 l-26 34 22 21 c32 33 11 40 -23 7 l-29 -28 -4 54 c-2 31 -3
16 -4 -36z"/>
<path d="M9680 1965 c0 -50 4 -85 10 -85 6 0 10 11 10 25 0 33 13 32 38 -2 11
-16 24 -25 28 -20 4 4 -2 17 -14 30 -27 29 -27 39 -2 62 11 10 18 21 15 23 -3
3 -19 -7 -35 -23 l-30 -29 0 52 c0 29 -4 52 -10 52 -6 0 -10 -35 -10 -85z"/>
<path d="M9832 2039 c-19 -7 -23 -15 -20 -41 3 -28 8 -34 43 -44 29 -8 41 -17
43 -32 5 -30 -41 -41 -68 -17 -23 21 -39 13 -20 -10 16 -19 84 -20 100 -1 24
29 8 60 -38 75 -35 11 -43 17 -40 35 4 27 34 33 59 10 10 -9 22 -14 27 -10 8
9 -34 46 -52 45 -6 0 -21 -4 -34 -10z"/>
<path d="M6960 1960 l0 -80 50 0 c28 0 50 5 50 10 0 6 -18 10 -40 10 l-40 0 0
70 c0 40 -4 70 -10 70 -6 0 -10 -33 -10 -80z"/>
<path d="M7960 1984 c0 -34 4 -53 10 -49 6 3 10 28 10 56 0 27 -4 49 -10 49
-5 0 -10 -25 -10 -56z"/>
<path d="M8105 2031 c29 -6 30 -7 35 -81 l6 -75 4 75 c5 74 5 75 35 81 19 4 5
7 -40 7 -45 0 -59 -3 -40 -7z"/>
<path d="M9065 2015 c-19 -18 -25 -35 -25 -69 0 -37 5 -48 31 -70 31 -26 82
-35 94 -16 4 6 -10 10 -34 10 -31 0 -44 6 -60 26 -25 32 -26 55 -6 94 38 74
167 30 139 -47 -15 -43 -34 -40 -34 5 0 38 -1 39 -35 40 -29 1 -38 -3 -44 -21
-16 -42 1 -62 55 -64 59 -1 74 9 74 54 0 49 -37 83 -90 83 -30 0 -47 -6 -65
-25z m83 -64 c4 -28 -17 -45 -35 -29 -14 11 -17 40 -6 52 14 14 38 0 41 -23z"/>
<path d="M9262 1958 c1 -68 2 -73 5 -25 2 31 7 57 11 57 4 0 16 -23 27 -52 11
-28 25 -53 31 -55 6 -2 22 25 37 59 l26 63 0 -62 c1 -35 5 -63 11 -63 6 0 10
33 10 80 0 100 -18 107 -50 20 -12 -33 -26 -62 -30 -65 -4 -2 -18 24 -32 57
-37 90 -48 86 -46 -14z"/>
<path d="M7550 2016 c0 -8 -6 -17 -12 -19 -10 -4 -10 -6 0 -6 7 -1 12 -16 12
-40 0 -54 8 -71 34 -71 19 1 19 2 4 11 -12 7 -18 22 -18 49 0 27 6 42 18 49
16 10 16 10 0 11 -10 0 -18 7 -18 15 0 8 -4 15 -10 15 -5 0 -10 -6 -10 -14z"/>
<path d="M7096 1978 c-9 -12 -16 -29 -16 -38 0 -29 30 -60 59 -60 37 0 51 17
51 60 0 20 -5 41 -12 48 -20 20 -65 14 -82 -10z m68 -11 c29 -43 -12 -97 -49
-67 -21 17 -19 67 3 79 25 15 30 14 46 -12z"/>
<path d="M7233 1941 c12 -34 27 -61 33 -61 5 0 20 27 32 60 11 33 17 60 12 60
-4 0 -16 -24 -26 -52 l-17 -53 -17 49 c-9 28 -21 51 -28 54 -7 2 -2 -21 11
-57z"/>
<path d="M7351 1981 c-14 -25 -14 -57 -1 -82 12 -21 74 -27 85 -8 11 17 -2 21
-23 8 -17 -10 -23 -10 -36 0 -29 24 -19 40 29 43 44 3 44 3 32 28 -17 33 -71
40 -86 11z m69 -11 c10 -18 8 -20 -25 -20 -37 0 -43 8 -23 28 18 18 36 15 48
-8z"/>
<path d="M7770 1940 c0 -33 4 -60 10 -60 6 0 10 27 10 60 0 33 -4 60 -10 60
-6 0 -10 -27 -10 -60z"/>
<path d="M7831 1983 c-12 -24 -3 -38 33 -50 17 -5 32 -15 34 -21 6 -18 -28
-27 -49 -14 -26 16 -34 15 -19 -3 16 -19 64 -20 79 -1 17 20 3 44 -30 51 -34
8 -46 22 -30 38 7 7 18 7 37 -1 20 -10 25 -10 22 0 -7 22 -65 22 -77 1z"/>
<path d="M8387 1993 c-15 -14 -6 -23 14 -13 25 14 49 6 49 -15 0 -9 -9 -15
-23 -15 -32 0 -60 -23 -55 -46 3 -15 12 -19 51 -20 l47 -2 0 47 c0 26 -5 52
-12 59 -13 13 -60 16 -71 5z m63 -67 c0 -20 -27 -39 -45 -32 -8 3 -15 12 -15
20 0 13 9 17 53 25 4 0 7 -5 7 -13z"/>
<path d="M8512 1935 c0 -33 3 -46 5 -30 7 57 13 73 29 79 27 10 44 -13 44 -60
0 -24 5 -44 10 -44 13 0 13 76 0 101 -9 15 -20 19 -50 17 l-40 -3 2 -60z"/>
<path d="M8771 1983 c-12 -24 -3 -38 33 -50 17 -5 32 -15 34 -21 6 -18 -28
-27 -49 -14 -26 16 -34 15 -19 -3 7 -8 25 -15 40 -15 56 0 63 56 9 67 -34 7
-46 20 -30 36 7 7 18 7 37 -1 20 -10 25 -10 22 0 -7 22 -65 22 -77 1z"/>
<path d="M9465 1989 c-11 -17 3 -23 20 -9 18 15 45 6 45 -15 0 -9 -9 -15 -23
-15 -13 0 -32 -6 -43 -14 -30 -23 -7 -51 45 -52 l41 -2 0 43 c0 63 -7 75 -45
75 -19 0 -37 -5 -40 -11z m53 -90 c-19 -13 -43 -6 -43 11 0 20 49 31 53 12 2
-8 -2 -19 -10 -23z"/>
<path d="M9590 1938 c0 -32 4 -58 10 -58 6 0 10 21 10 46 0 37 4 47 20 51 30
8 24 22 -10 21 -30 -1 -30 -1 -30 -60z"/>
<path d="M7956 1903 c-11 -11 -6 -23 9 -23 8 0 15 4 15 9 0 13 -16 22 -24 14z"/>
<path d="M6974 1446 c-8 -8 -7 -15 0 -22 8 -8 15 -7 22 0 8 8 7 15 0 22 -8 8
-15 7 -22 0z"/>
<path d="M6843 1426 c-51 -44 -31 -132 36 -157 50 -19 121 26 121 76 0 14 -5
10 -18 -15 -35 -71 -116 -74 -149 -4 -25 52 -1 95 67 117 9 4 7 6 -7 6 -12 1
-34 -10 -50 -23z"/>
<path d="M7280 1360 l0 -70 43 2 42 1 -37 4 c-34 4 -38 7 -38 33 0 26 4 29 38
33 l37 4 -37 1 c-33 2 -38 5 -38 26 0 21 5 25 38 29 l37 4 -42 1 -43 2 0 -70z"/>
<path d="M7470 1404 c0 -17 -4 -23 -12 -18 -10 6 -10 5 -1 -7 6 -8 13 -30 16
-49 2 -20 4 -7 5 33 1 37 0 67 -3 67 -3 0 -5 -12 -5 -26z"/>
<path d="M7860 1360 l0 -70 28 1 c23 2 24 2 5 6 -21 4 -23 10 -23 64 0 58 0
59 28 59 15 0 33 -5 40 -12 17 -17 15 -74 -4 -92 -8 -9 -12 -16 -7 -16 35 0
46 85 15 113 -10 10 -33 17 -50 17 l-32 0 0 -70z"/>
<path d="M7582 1364 c-2 -49 1 -63 14 -68 13 -5 14 -3 6 7 -6 7 -12 37 -15 67
l-3 55 -2 -61z"/>
<path d="M8288 1403 c-2 -10 -1 -38 3 -63 6 -43 6 -43 7 18 2 61 -2 79 -10 45z"/>
<path d="M6870 1390 c0 -5 5 -10 10 -10 6 0 10 5 10 10 0 6 -4 10 -10 10 -5 0
-10 -4 -10 -10z"/>
<path d="M6925 1390 c-3 -5 -1 -10 4 -10 6 0 11 5 11 10 0 6 -2 10 -4 10 -3 0
-8 -4 -11 -10z"/>
<path d="M7405 1379 c-11 -16 -1 -19 13 -3 7 8 8 14 3 14 -5 0 -13 -5 -16 -11z"/>
<path d="M7523 1345 c0 -27 2 -38 4 -22 2 15 2 37 0 50 -2 12 -4 0 -4 -28z"/>
<path d="M8007 1383 c-10 -10 -8 -71 2 -77 5 -4 7 3 4 14 -5 17 0 20 31 20 20
0 36 4 36 9 0 19 -12 41 -23 41 -7 0 -7 -4 1 -12 20 -20 14 -28 -19 -28 -26 0
-31 3 -26 20 5 21 4 24 -6 13z"/>
<path d="M8172 1378 c-28 -28 -3 -88 36 -88 12 0 10 4 -7 13 -39 19 -38 37 3
37 19 0 37 3 40 8 2 4 -13 6 -35 4 -40 -4 -49 4 -27 26 7 7 10 12 7 12 -3 0
-10 -5 -17 -12z"/>
<path d="M8410 1383 c5 -2 10 -11 10 -19 0 -18 -56 -19 -63 -1 -3 6 -6 -2 -6
-20 -1 -17 3 -34 8 -37 5 -4 7 3 4 14 -5 17 0 20 32 20 32 0 36 3 33 22 -2 12
-9 23 -16 24 -7 1 -8 0 -2 -3z"/>
<path d="M7143 1343 c9 -2 23 -2 30 0 6 3 -1 5 -18 5 -16 0 -22 -2 -12 -5z"/>
<path d="M7713 1343 c9 -2 25 -2 35 0 9 3 1 5 -18 5 -19 0 -27 -2 -17 -5z"/>
<path d="M6872 1330 c6 -18 46 -26 61 -11 7 7 3 8 -12 4 -11 -3 -29 1 -38 8
-14 12 -16 12 -11 -1z"/>
<path d="M7400 1324 c0 -17 27 -37 42 -31 8 4 7 6 -4 6 -9 1 -22 9 -27 19 -6
9 -11 12 -11 6z"/>
<path d="M8395 1300 c-16 -7 -17 -9 -3 -9 9 -1 20 4 23 9 7 11 7 11 -20 0z"/>
<path d="M2990 9342 c0 -10 -5 -23 -12 -30 -9 -9 -8 -12 4 -12 10 0 18 -13 22
-37 12 -67 16 -73 44 -72 25 0 25 1 6 9 -14 6 -23 21 -27 47 -10 55 -9 63 8
63 8 0 15 5 15 11 0 6 -7 8 -16 5 -11 -4 -18 1 -21 14 -7 25 -23 26 -23 2z"/>
<path d="M2878 9296 c-15 -7 -23 -20 -23 -36 0 -21 7 -27 41 -35 23 -5 42 -13
43 -17 4 -27 -1 -30 -39 -25 -40 5 -55 -5 -24 -17 29 -11 54 -6 74 14 30 30
11 60 -36 60 -22 0 -37 6 -41 16 -8 22 16 35 51 28 18 -4 26 -2 22 4 -10 16
-43 20 -68 8z"/>
<path d="M2722 9264 c-16 -11 -22 -25 -22 -53 0 -50 19 -74 59 -74 31 0 71 26
58 39 -3 3 -13 -1 -22 -10 -19 -19 -46 -21 -63 -4 -23 23 -12 35 38 42 55 7
55 8 39 39 -22 40 -50 47 -87 21z m65 -19 c7 -20 5 -21 -34 -30 -28 -6 -33 -4
-33 13 0 10 3 22 7 25 12 13 54 7 60 -8z"/>
<path d="M2636 9201 c6 -54 5 -60 -16 -71 -30 -16 -48 2 -58 60 -4 24 -12 45
-18 47 -8 3 -9 -10 -3 -44 17 -90 28 -101 77 -81 15 6 33 10 41 9 9 -2 12 4 8
21 -3 13 -9 44 -12 71 -10 69 -27 59 -19 -12z"/>
<path d="M2470 9221 c0 -4 -17 -8 -37 -7 -31 1 -39 -3 -51 -27 -16 -32 -2 -91
24 -101 25 -10 59 -7 72 6 9 9 13 4 18 -20 4 -18 10 -32 15 -32 12 0 12 1 -7
103 -9 48 -20 87 -25 87 -5 0 -9 -4 -9 -9z m-2 -33 c7 -7 12 -27 12 -45 0 -35
-26 -58 -54 -47 -22 8 -38 62 -25 85 11 21 49 25 67 7z"/>
<path d="M2270 9192 c-27 -8 -50 -35 -50 -58 0 -37 22 -74 47 -81 27 -6 73 11
73 27 0 13 -17 13 -25 0 -11 -17 -54 -11 -64 9 -9 15 -7 20 12 25 12 3 32 6
45 6 27 0 37 21 23 48 -11 21 -37 31 -61 24z m41 -28 c16 -19 -2 -34 -43 -34
-32 0 -38 23 -10 39 24 15 38 13 53 -5z"/>
<path d="M2160 9170 c-8 -5 -12 -12 -9 -15 8 -8 39 5 39 16 0 11 -11 11 -30
-1z"/>
<path d="M2120 9157 c0 -33 24 -127 32 -127 8 0 5 58 -8 118 -5 24 -24 31 -24
9z"/>
<path d="M1987 9133 c-4 -3 -7 -20 -8 -37 -1 -17 -4 -42 -8 -56 -7 -23 -10
-21 -36 33 -16 31 -33 57 -37 57 -15 0 -8 -19 27 -77 40 -67 41 -70 18 -95
-14 -16 -15 -18 0 -18 23 0 29 14 47 112 16 81 15 99 -3 81z"/>
<path d="M1783 9103 c-23 -9 -13 -18 19 -18 57 0 74 -79 22 -99 -24 -9 -54 22
-54 55 0 35 -9 59 -22 59 -11 0 -6 -51 14 -142 11 -54 33 -67 23 -15 -6 33 -6
33 27 29 42 -5 62 16 61 65 -2 55 -43 86 -90 66z"/>
<path d="M1410 9080 c-14 -14 -20 -33 -20 -68 0 -83 50 -125 116 -97 19 8 37
21 40 30 11 27 -3 27 -29 1 -32 -32 -51 -33 -82 -1 -30 29 -34 94 -9 119 20
21 63 20 86 -1 16 -15 18 -15 18 0 0 38 -87 50 -120 17z"/>
<path d="M1596 9058 c-20 -28 -20 -51 -1 -88 30 -58 115 -31 115 36 0 45 -25
74 -65 74 -24 0 -39 -7 -49 -22z m92 -32 c11 -56 -33 -91 -69 -55 -26 26 -24
64 3 83 19 13 25 14 43 2 11 -7 22 -21 23 -30z"/>
<path d="M9332 4005 c-81 -68 -58 -186 43 -214 104 -29 190 82 140 179 -9 16
-29 36 -45 45 -34 18 -48 19 -33 4 7 -7 8 -24 1 -52 -8 -34 -6 -48 8 -75 14
-26 15 -35 5 -45 -10 -9 -18 -6 -38 17 -23 27 -25 35 -18 90 3 34 12 64 18 68
7 4 -2 8 -20 8 -19 0 -43 -10 -61 -25z"/>
<path d="M10286 3744 c-9 -8 -16 -22 -16 -29 0 -17 27 -45 44 -45 19 0 36 22
36 45 0 41 -36 58 -64 29z"/>
</g>
</svg>
